<?xml version="1.0" encoding="UTF-8"?>
<svg id="Calque_2" data-name="Calque 2" xmlns="http://www.w3.org/2000/svg" viewBox="0 0 1519.12 232.24">
  <defs>
    <style>
      .cls-1 {
        stroke-width: 0px;
      }

      .cls-1, .cls-2 {
        fill: #000;
      }

      .cls-2 {
        stroke: #000;
        stroke-miterlimit: 10;
        stroke-width: 4px;
      }
    </style>
  </defs>
  <g id="Calque_1-2" data-name="Calque 1">
    <g>
      <path class="cls-1" d="M152.47,156.16v68.07H0v-1.85l24.03-11.4V29.57L0,18.17v-1.85h148.46v68.07h-1.85c-2.77-7.08-4.93-13.25-7.08-18.79-14.48-41.89-16.02-43.74-40.35-43.74h-49.28v94.25h31.73c19.41,0,20.02-9.24,31.73-38.5h1.85v82.55h-1.85c-11.7-28.95-12.32-38.5-31.73-38.5h-31.73v97.02h53.29c24.64,0,25.87-1.85,40.35-43.74,2.16-5.54,4.31-11.7,7.08-18.79h1.85Z"/>
      <path class="cls-1" d="M177.72,148.46c0-68.38,53.59-89.32,67.46-89.32,33.88,0,48.36,24.03,48.67,37.58l-25.26,24.95-1.23-.62c4.62-27.11-11.09-48.67-31.73-48.67-16.02,0-38.5,8.93-38.5,53.9,0,47.74,26.18,82.55,65.61,82.55,12.63,0,20.64-5.54,30.49-11.09l1.23,1.85c-19.4,16.32-36.65,28.03-45.89,28.03-39.12,0-70.84-26.8-70.84-79.16Z"/>
      <path class="cls-1" d="M429.37,74.85c-5.54,6.78-14.17,23.1-23.41,23.1-10.78,0-21.87-17.25-32.65-17.25-6.47,0-14.78,11.7-20.64,22.79v110.58l25.26,8.32v1.85h-74.54v-1.85l25.26-8.32V78.85l-33.57,18.48-.92-1.54c14.17-13.55,29.57-36.04,40.97-36.04,6.47,0,12.32,2.46,16.63,35.11,10.47-16.02,27.11-35.42,30.49-35.42,8.93,0,24.95,18.79,35.73,18.79,4.31,0,7.08-2.16,10.47-4.31l.92.92Z"/>
      <path class="cls-1" d="M448.77,73.62l-25.26-8.93v-1.85h49.59v10.78l-.31,140.46,25.26,8.32v1.85h-74.54v-1.85l25.26-8.32V73.62ZM443.23,15.71c0-8.62,7.08-15.71,16.63-15.71s16.02,7.08,16.02,15.71c0,9.55-6.78,16.32-16.02,16.32s-16.63-6.78-16.63-16.32Z"/>
      <path class="cls-1" d="M578.14,62.83h48.97v1.85l-64.07,167.56h-1.54l-62.83-167.56v-1.85h53.29v1.85l-25.26,8.93,44.05,119.51h1.85l21.87-60.68c16.94-47.74,11.7-57.29-16.33-67.76v-1.85Z"/>
      <path class="cls-1" d="M748.47,199.9c-19.4,16.32-36.35,27.72-45.59,27.72-39.12,0-71.15-26.8-71.15-79.16,0-68.38,53.9-89.32,67.76-89.32,34.19,0,46.51,21.25,46.82,51.75,0,5.85-21.87,19.1-27.41,19.1h-67.46c1.23,46.51,26.18,78.85,65.3,78.85,12.63,0,20.64-5.24,30.49-11.09l1.23,2.16ZM651.44,124.44h71.15c2.16-35.42-13.86-52.05-32.34-52.05-16.02,0-37.89,8.93-38.81,52.05Z"/>
      <path class="cls-1" d="M881.84,64.68l-88.4,153.7h32.96c36.65,0,36.65-13.86,51.75-67.76h1.85l.31,73-.92.62h-113.35l.62-.31-1.85.31v-1.85l87.78-154.01h-31.11c-38.19,0-36.35,13.86-50.51,59.14h-1.85l-.31-63.76.92-.92h112.12v1.85Z"/>
      <path class="cls-2" d="M901.24,136.45h95.18v5.54h-95.18v-5.54Z"/>
      <path class="cls-1" d="M1223.43,214.07l25.26,8.32v1.85h-74.85v-1.85l25.26-8.32v-101.34c0-24.33-14.48-34.5-30.49-34.5-11.7,0-22.48,10.78-30.19,21.87.31,3.7.62,7.7.62,12.01v101.95l25.26,8.32v1.85h-74.54v-1.85l25.26-8.32v-101.34c0-24.33-14.78-34.5-30.49-34.5-11.4,0-21.87,10.17-29.57,20.64v115.2l25.26,8.32v1.85h-74.54v-1.85l25.26-8.32V78.85l-33.57,18.48-.92-1.54c14.17-13.55,29.57-36.04,40.97-36.04,6.16,0,12.01,2.16,16.32,31.73,17.25-20.95,32.96-31.42,39.12-31.42,20.64,0,38.19,8.62,44.05,32.65,17.86-21.56,33.88-32.65,40.04-32.65,25.26,0,46.2,12.94,46.2,52.05l.31,101.95Z"/>
      <path class="cls-1" d="M1253.92,150.31c0-69.92,48.36-90.56,62.22-90.56,35.11,0,64.99,26.18,64.99,77.31,0,70.23-48.36,90.56-62.22,90.56-35.11,0-64.99-26.18-64.99-77.31ZM1360.49,151.54c-3.08-47.43-25.56-78.24-55.75-77.31-13.55.62-33.57,13.25-30.49,61.6,3.39,47.43,25.87,78.24,56.06,77.31,13.55-.62,33.57-13.24,30.19-61.6Z"/>
      <path class="cls-1" d="M1411.62,73.62l-25.26-8.93v-1.85h49.59v10.78l-.31,140.46,25.26,8.32v1.85h-74.54v-1.85l25.26-8.32V73.62ZM1406.08,15.71c0-8.62,7.08-15.71,16.63-15.71s16.02,7.08,16.02,15.71c0,9.55-6.78,16.32-16.02,16.32s-16.63-6.78-16.63-16.32Z"/>
      <path class="cls-1" d="M1486.16,208.83c0-8.62,7.08-16.02,16.63-16.02s16.32,7.39,16.32,16.02c0,9.24-7.08,16.32-16.32,16.32s-16.63-7.08-16.63-16.32ZM1501.56,179.57c-.92-12.63-11.09-102.57-13.55-164.48h29.26c-2.46,61.91-12.63,151.54-13.55,164.48h-2.16Z"/>
    </g>
  </g>
</svg>