<svg xmlns="http://www.w3.org/2000/svg" xmlns:xlink="http://www.w3.org/1999/xlink" width="1889.475" height="423.55" viewBox="0 0 1889.475 423.55">
  <defs>
    <clipPath id="clip-path">
      <path id="Tracé_34" data-name="Tracé 34" d="M0,0H1889.475V-423.55H0Z" fill="none"/>
    </clipPath>
  </defs>
  <g id="Groupe_8" data-name="Groupe 8" transform="translate(0 423.55)">
    <g id="Groupe_7" data-name="Groupe 7" clip-path="url(#clip-path)">
      <g id="Groupe_6" data-name="Groupe 6" transform="translate(93.74 -400.76)">
        <path id="Tracé_33" data-name="Tracé 33" d="M0,0H-93.74V2.58L-60.2,18.49V271.76l-33.54,15.91v2.58h83.42c118.68,0,156.52-80.41,156.52-149.21C146.2,48.59,92.02,0,0,0M-24.08,282.51V7.74H-9.03c82.56,0,116.96,52.46,116.96,137.17,0,89.87-33.97,136.74-118.68,137.6Zm235.2-260.58c12.9,0,22.36-9.46,22.36-22.79,0-12.04-9.46-21.93-22.36-21.93-13.33,0-23.22,9.89-23.22,21.93,0,13.33,9.89,22.79,23.22,22.79m-15.48,254.13-35.26,11.61v2.58h104.06v-2.58l-35.26-11.61.43-196.08V64.93h-69.23v2.58l35.26,12.47Zm239.075-22.79c-13.76,8.17-24.94,15.48-42.57,15.48-54.61,0-89.44-45.15-91.16-110.08h94.17c7.74,0,38.27-18.49,38.27-26.66-.43-42.57-17.63-72.24-65.36-72.24-19.35,0-94.6,29.24-94.6,124.7,0,73.1,44.72,110.51,99.33,110.51,12.9,0,36.55-15.91,63.64-38.7ZM355.169,78.26c25.8,0,48.16,23.22,45.15,72.67h-99.33c1.29-60.2,31.82-72.67,54.18-72.67M675.515,64.93h-50.31c-29.67,0-64.93-6.02-74.82-6.02-18.06,0-76.11,29.67-76.11,84.28,0,26.23,9.89,45.15,26.66,57.19-22.79,25.37-46.44,44.29-46.44,48.59,0,24.94,23.65,38.7,52.46,42.57-48.16,41.71-59.77,51.17-59.34,55.9,3.44,33.97,49.45,53.32,98.47,53.32,97.18,0,109.65-72.24,109.65-87.72,0-37.41-37.41-42.57-64.5-44.29l-70.09-5.16c-27.09-1.72-35.69-14.19-35.69-27.52,0-12.04,10.32-21.5,21.07-31.82,12.9,7.74,29.67,11.61,47.73,11.61,18.49,0,76.11-30.53,76.11-84.71,0-24.08-10.32-46.01-35.26-60.2l.43-1.29c24.08,5.16,58.91,9.46,79.98,9.46Zm-73.96,79.12c3.44,40.42-16.34,55.04-40.42,55.04-30.53,0-56.33-27.52-59.34-67.51-3.01-40.85,16.77-55.04,38.27-55.47,33.11,0,58.48,27.09,61.49,67.94m43.86,188.77c0,22.79-27.95,43.86-74.82,43.86-49.45,0-89.44-18.49-89.44-42.57,0-12.47,12.47-26.23,33.54-41.71l56.33,3.87c36.12,3.01,74.39,9.46,74.39,36.55m112.658-37.84c19.35,0,86.86-28.38,86.86-126.42,0-71.38-41.71-107.93-90.73-107.93-19.35,0-86.86,28.81-86.86,126.42,0,71.38,41.71,107.93,90.73,107.93m15.91-20.21c-42.14,1.29-73.53-41.71-78.26-107.93-4.3-67.51,23.65-85.14,42.57-86,42.14-1.29,73.53,41.71,77.83,107.93,4.73,67.51-23.22,85.14-42.14,86m305.387,20.21c25.37,0,113.95-37.41,113.95-150.07,0-76.11-42.14-149.21-119.11-149.21-25.37,0-113.95,37.41-113.95,150.07,0,76.11,42.14,149.21,119.11,149.21m17.2-21.93c-57.62,1.72-100.19-62.35-105.78-140.61-5.59-82.99,28.38-113.52,65.79-114.81,57.19-1.29,98.9,61.06,104.49,138.46,6.45,83.42-27.09,115.67-64.5,116.96M1392.834,80.41c-4.73,3.01-8.6,6.02-14.62,6.02-15.05,0-37.41-26.23-49.88-26.23-4.73,0-27.95,27.09-42.57,49.45-6.02-45.58-14.19-49.02-23.22-49.02-15.91,0-37.41,31.39-57.19,50.31l1.29,2.15,46.87-25.8V276.06l-35.26,11.61v2.58h104.06v-2.58l-35.26-11.61V121.69c8.17-15.48,19.78-31.82,28.81-31.82,15.05,0,30.53,24.08,45.58,24.08,12.9,0,24.94-22.79,32.68-32.25Zm119.107,174.15c-15.91,14.19-24.08,16.34-33.11,16.34-17.2,0-25.37-9.46-25.37-27.95V73.96c24.51,2.58,47.3,6.02,57.19,6.02V64.93h-57.19l.86-51.17h-2.15l-30.53,51.17h-35.69v2.58l33.97,7.31.43,171.57c0,32.25,14.62,48.59,38.27,48.59,9.46,0,34.4-15.91,55.04-38.27ZM1565.26,21.93c12.9,0,22.36-9.46,22.36-22.79,0-12.04-9.46-21.93-22.36-21.93-13.33,0-23.22,9.89-23.22,21.93,0,13.33,9.89,22.79,23.22,22.79m-15.48,254.13-35.26,11.61v2.58h104.06v-2.58l-35.26-11.61.43-196.08V64.93h-69.23v2.58l35.26,12.47ZM1795.735,64.93h-156.52l-1.29,1.29.43,89.01h2.58c19.78-63.21,17.2-82.56,70.52-82.56h43.43l-122.55,215v2.58l2.58-.43-.86.43H1792.3l1.29-.86-.43-101.91h-2.58c-21.07,75.25-21.07,94.6-72.24,94.6h-46.01l123.41-214.57Z" fill="#2b2e34"/>
      </g>
    </g>
  </g>
</svg>
