<svg xmlns="http://www.w3.org/2000/svg" xmlns:xlink="http://www.w3.org/1999/xlink" width="1459.832" height="334.54" viewBox="0 0 1459.832 334.54">
  <defs>
    <clipPath id="clip-path">
      <path id="Tracé_36" data-name="Tracé 36" d="M0,0H1459.832V-334.54H0Z" fill="none"/>
    </clipPath>
  </defs>
  <g id="Groupe_11" data-name="Groupe 11" transform="translate(0 334.54)">
    <g id="Groupe_10" data-name="Groupe 10" clip-path="url(#clip-path)">
      <g id="Groupe_9" data-name="Groupe 9" transform="translate(100.62 -122.98)">
        <path id="Tracé_35" data-name="Tracé 35" d="M0,0C84.71,0,118.68-47.73,118.68-93.31c0-55.04-43.86-78.69-106.64-78.69H-99.33v2.58l33.54,15.91-.43,254.13-34.4,15.05v2.58H5.16v-2.58l-34.83-15.05V0ZM0-164.26c53.32,0,80.84,28.38,80.84,77.4,0,54.61-27.95,79.12-86.86,79.12H-29.67V-164.26ZM224.889,122.98c19.35,0,86.86-28.38,86.86-126.42,0-71.38-41.71-107.93-90.73-107.93-19.35,0-86.86,28.81-86.86,126.42,0,71.38,41.71,107.93,90.73,107.93m15.91-20.21c-42.14,1.29-73.53-41.71-78.26-107.93-4.3-67.51,23.65-85.14,42.57-86,42.14-1.29,73.53,41.71,77.83,107.93,4.73,67.51-23.22,85.14-42.14,86M505.244-91.59c-4.73,3.01-8.6,6.02-14.62,6.02-15.05,0-37.41-26.23-49.88-26.23-4.73,0-27.95,27.09-42.57,49.45-6.02-45.58-14.19-49.02-23.22-49.02-15.91,0-37.41,31.39-57.19,50.31l1.29,2.15,46.87-25.8V104.06l-35.26,11.61v2.58h104.06v-2.58l-35.26-11.61V-50.31c8.17-15.48,19.78-31.82,28.81-31.82,15.05,0,30.53,24.08,45.58,24.08,12.9,0,24.94-22.79,32.68-32.25ZM624.351,82.56c-15.91,14.19-24.08,16.34-33.11,16.34-17.2,0-25.37-9.46-25.37-27.95V-98.04c24.51,2.58,47.3,6.02,57.19,6.02v-15.05h-57.19l.86-51.17h-2.15l-30.53,51.17h-35.69v2.58l33.97,7.31.43,171.57c0,32.25,14.62,48.59,38.27,48.59,9.46,0,34.4-15.91,55.04-38.27ZM734.859-211.56c-17.2,0-70.95,16.34-67.08,84.71l.861,19.78H633.38v2.58l35.26,6.88V103.63l-35.26,11.61v2.58H737.87v-2.58l-35.261-11.61V-98.47c27.951,3.01,54.18,6.45,65.791,6.45v-15.05H702.609c-4.729-8.17-17.63-30.1-17.63-50.31,0-23.65,12.9-37.84,35.261-37.84,27.95,0,58.91,23.65,58.91,57.19l2.149.86,22.36-40.42c-12.039-17.63-32.25-33.97-68.8-33.97M860.421,122.98c19.35,0,86.86-28.38,86.86-126.42,0-71.38-41.71-107.93-90.73-107.93-19.35,0-86.86,28.81-86.86,126.42,0,71.38,41.71,107.93,90.73,107.93m15.91-20.21c-42.14,1.29-73.53-41.71-78.26-107.93-4.3-67.51,23.65-85.14,42.57-86,42.14-1.29,73.53,41.71,77.83,107.93,4.73,67.51-23.22,85.14-42.14,86m149.206,1.29V-208.98h-2.58l-70.95,17.63v2.58L992-187.48V104.06l-35.26,11.61v2.58H1060.8v-2.58Zm93.74-254.13c12.9,0,22.36-9.46,22.36-22.79,0-12.04-9.46-21.93-22.36-21.93-13.33,0-23.22,9.89-23.22,21.93,0,13.33,9.89,22.79,23.22,22.79M1103.8,104.06l-35.26,11.61v2.58H1172.6v-2.58l-35.26-11.61.43-196.08v-15.05h-69.23v2.58l35.26,12.47Zm168.555,18.92c19.35,0,86.86-28.38,86.86-126.42,0-71.38-41.71-107.93-90.73-107.93-19.35,0-86.86,28.81-86.86,126.42,0,71.38,41.71,107.93,90.73,107.93m15.91-20.21c-42.14,1.29-73.53-41.71-78.26-107.93-4.3-67.51,23.65-85.14,42.57-86,42.14-1.29,73.53,41.71,77.83,107.93,4.73,67.51-23.22,85.14-42.14,86" fill="#2b2e34"/>
      </g>
    </g>
  </g>
</svg>
