<?xml version="1.0" encoding="UTF-8"?>
<svg id="Calque_2" data-name="Calque 2" xmlns="http://www.w3.org/2000/svg" viewBox="0 0 1812.16 219">
  <defs>
    <style>
      .cls-1 {
        fill: #000;
        stroke-width: 0px;
      }
    </style>
  </defs>
  <g id="Calque_1-2" data-name="Calque 1">
    <g>
      <path class="cls-1" d="M74.84,108.53c27.06,13.53,53.3,23.75,53.3,54.13,0,27.34-20.99,52.75-62.14,52.75-24.58,0-38.94-8.84-58.82-11.88L0,131.18l2.21-.28c13.81,64.07,56.34,74.01,78.71,74.01,27.34,0,35.9-12.98,35.9-27.34,0-23.47-25.96-33.97-50.81-46.12l-12.7-6.9c-22.37-10.77-46.12-21.82-46.12-52.47,0-32.31,26.51-48.61,56.06-48.61,18.5,0,34.52,6.63,44.46,15.19l9.94-14.91h1.66v70.98h-1.66c-13.26-37.56-36.73-60.76-69.04-60.76-17.95,0-31.21,8.56-31.21,24.85,0,20.44,20.99,30.93,45.57,43.36l11.88,6.35Z"/>
      <path class="cls-1" d="M251.03,190c-17.4,14.64-32.59,24.86-40.87,24.86-35.07,0-63.79-24.03-63.79-70.98,0-61.31,48.33-80.09,60.76-80.09,30.65,0,41.7,19.06,41.98,46.4,0,5.25-19.61,17.12-24.58,17.12h-60.48c1.1,41.7,23.47,70.7,58.55,70.7,11.32,0,18.5-4.69,27.34-9.94l1.1,1.93ZM164.04,122.34h63.79c1.93-31.76-12.43-46.67-29-46.67-14.36,0-33.97,8.01-34.8,46.67Z"/>
      <path class="cls-1" d="M376.68,77.88c-4.97,6.08-12.7,20.71-20.99,20.71-9.67,0-19.61-15.47-29.27-15.47-5.8,0-13.26,10.49-18.5,20.44v99.14l22.65,7.46v1.66h-66.83v-1.66l22.65-7.46v-121.24l-30.1,16.57-.83-1.38c12.7-12.15,26.51-32.31,36.73-32.31,5.8,0,11.05,2.21,14.91,31.48,9.39-14.36,24.3-31.76,27.34-31.76,8.01,0,22.37,16.85,32.04,16.85,3.87,0,6.35-1.93,9.39-3.87l.83.83Z"/>
      <path class="cls-1" d="M443.24,67.11h43.91v1.66l-57.44,150.24h-1.38l-56.34-150.24v-1.66h47.78v1.66l-22.65,8.01,39.49,107.15h1.66l19.61-54.41c15.19-42.81,10.49-51.37-14.64-60.76v-1.66Z"/>
      <path class="cls-1" d="M509.79,76.77l-22.65-8.01v-1.66h44.46v9.67l-.28,125.93,22.65,7.46v1.66h-66.83v-1.66l22.65-7.46v-125.93ZM504.82,24.85c0-7.73,6.35-14.08,14.91-14.08s14.36,6.35,14.36,14.08c0,8.56-6.08,14.64-14.36,14.64s-14.91-6.08-14.91-14.64Z"/>
      <path class="cls-1" d="M559.77,143.88c0-61.31,48.05-80.09,60.48-80.09,30.38,0,43.36,21.54,43.63,33.69l-22.65,22.37-1.1-.55c4.14-24.3-9.94-43.63-28.45-43.63-14.36,0-34.52,8.01-34.52,48.33,0,42.81,23.47,74.01,58.82,74.01,11.32,0,18.5-4.97,27.34-9.94l1.1,1.66c-17.4,14.64-32.86,25.13-41.15,25.13-35.07,0-63.52-24.03-63.52-70.98Z"/>
      <path class="cls-1" d="M776.56,190c-17.4,14.64-32.59,24.86-40.87,24.86-35.07,0-63.79-24.03-63.79-70.98,0-61.31,48.33-80.09,60.76-80.09,30.65,0,41.7,19.06,41.98,46.4,0,5.25-19.61,17.12-24.58,17.12h-60.48c1.1,41.7,23.47,70.7,58.55,70.7,11.32,0,18.5-4.69,27.34-9.94l1.1,1.93ZM689.56,122.34h63.79c1.93-31.76-12.43-46.67-29-46.67-14.36,0-33.97,8.01-34.8,46.67Z"/>
      <path class="cls-1" d="M853.33,130.08c19.61,10.49,37.56,21.82,37.56,45.02,0,20.71-14.08,39.77-46.4,39.77-19.33,0-32.59-6.9-46.67-8.01l-7.46-62.41h2.21c11.88,51.37,48.61,62.41,65.45,62.41,12.7,0,22.37-7.18,22.37-19.88,0-14.08-13.53-23.47-37.01-35.63l-12.15-7.18c-18.78-9.94-33.97-20.44-33.97-41.15,0-23.75,18.78-39.77,45.29-39.77,10.77,0,24.58,2.76,33.69,10.77l7.18-9.39h1.66l-.28,62.69h-1.93c-7.46-30.65-25.13-56.34-52.75-56.34-14.36,0-21.27,8.56-21.27,19.06,0,14.91,14.64,23.47,32.04,32.59l12.43,7.46Z"/>
      <path class="cls-1" d="M964.62,117.92c1.38-74.84,67.38-95.55,79.54-95.55,31.76,0,50.82,14.08,57.72,28.72l-19.33,34.8h-1.66c3.31-35.63-22.09-50.54-46.95-50.54-14.08,0-49.43,6.9-50.54,62.41-1.11,51.64,27.06,99.42,76.22,99.42,15.74,0,26.24-6.08,36.18-11.6l1.1,2.49c-17.4,11.6-45.29,26.51-52.47,26.51-45.84-.28-80.64-41.15-79.81-96.66Z"/>
      <path class="cls-1" d="M1225.04,77.88c-4.97,6.08-12.7,20.71-20.99,20.71-9.67,0-19.61-15.47-29.27-15.47-5.8,0-13.26,10.49-18.5,20.44v99.14l22.65,7.46v1.66h-66.83v-1.66l22.65-7.46v-121.24l-30.1,16.57-.83-1.38c12.7-12.15,26.51-32.31,36.73-32.31,5.8,0,11.05,2.21,14.91,31.48,9.39-14.36,24.3-31.76,27.34-31.76,8.01,0,22.37,16.85,32.04,16.85,3.87,0,6.35-1.93,9.39-3.87l.83.83Z"/>
      <path class="cls-1" d="M1323.08,188.07l1.1,1.93c-17.4,14.64-32.59,24.86-40.87,24.86-35.07,0-63.79-24.03-63.79-70.98,0-61.31,48.33-80.09,60.76-80.09,30.66,0,41.7,19.06,41.98,46.4,0,5.25-19.61,17.12-24.58,17.12h-60.48c1.1,41.7,23.47,70.7,58.55,70.7,11.32,0,18.5-4.69,27.34-9.94ZM1237.19,122.34h63.79c1.93-31.76-12.43-46.67-29-46.67-14.36,0-33.97,8.01-34.8,46.67ZM1299.88,4.69h24.58v1.66l-47.5,48.33h-2.21l25.13-49.99Z"/>
      <path class="cls-1" d="M1467.24,180.06l.83,1.38c-12.7,12.43-26.51,32.59-36.73,32.59-5.8,0-11.32-2.49-15.19-32.59-15.19,22.65-27.34,33.42-47.22,33.42-18.5,0-27.89-9.67-27.89-23.47,0-22.37,27.34-42.53,54.68-60.48l20.44-12.43c.28-22.37-2.76-42.53-24.58-42.25-20.44,0-31.21,17.4-28.17,43.63l-26.24,11.88-.83-.55c19.88-51.92,54.68-67.94,65.45-67.94,32.04,0,38.39,23.47,37.28,45.02l-1.93,72.91v15.47l30.1-16.57ZM1415.59,174.81l.55-49.99c-35.35,22.37-51.09,39.49-51.09,57.17,0,11.88,6.9,18.5,16.02,18.5,9.67,0,22.09-7.73,34.52-25.68Z"/>
      <path class="cls-1" d="M1545.11,190.28c-13.26,14.36-29.27,24.58-35.35,24.58-15.19,0-24.58-10.49-24.58-31.21l-.28-110.19-21.82-4.7v-1.66h22.92l19.61-32.86h1.38l-.55,32.86h36.73v9.67c-6.35,0-20.99-2.21-36.73-3.87v108.53c0,11.88,5.25,17.95,16.29,17.95,5.8,0,11.05-1.38,21.27-10.49l1.1,1.38Z"/>
      <path class="cls-1" d="M1568.31,76.77l-22.65-8.01v-1.66h44.46v9.67l-.28,125.93,22.65,7.46v1.66h-66.83v-1.66l22.65-7.46v-125.93ZM1563.34,24.85c0-7.73,6.35-14.08,14.91-14.08s14.36,6.35,14.36,14.08c0,8.56-6.08,14.64-14.36,14.64s-14.91-6.08-14.91-14.64Z"/>
      <path class="cls-1" d="M1726,21.82l-14.36,25.96-1.38-.55c0-21.54-19.88-36.73-37.83-36.73-14.36,0-22.65,9.11-22.65,24.3,0,12.98,8.29,27.06,11.32,32.31h42.25v9.67c-7.46,0-24.3-2.21-42.25-4.14v129.8l22.65,7.46v1.66h-67.11v-1.66l22.65-7.46V73.18l-22.65-4.42v-1.66h22.65l-.55-12.7c-2.49-43.91,32.04-54.41,43.08-54.41,23.47,0,36.45,10.49,44.19,21.82Z"/>
      <path class="cls-1" d="M1774.6,130.08c19.61,10.49,37.56,21.82,37.56,45.02,0,20.71-14.08,39.77-46.4,39.77-19.33,0-32.59-6.9-46.67-8.01l-7.46-62.41h2.21c11.88,51.37,48.61,62.41,65.45,62.41,12.7,0,22.37-7.18,22.37-19.88,0-14.08-13.53-23.47-37.01-35.63l-12.15-7.18c-18.78-9.94-33.97-20.44-33.97-41.15,0-23.75,18.78-39.77,45.29-39.77,10.77,0,24.58,2.76,33.69,10.77l7.18-9.39h1.66l-.28,62.69h-1.93c-7.46-30.65-25.13-56.34-52.75-56.34-14.36,0-21.26,8.56-21.26,19.06,0,14.91,14.64,23.47,32.04,32.59l12.43,7.46Z"/>
    </g>
  </g>
</svg>